<svg width="54" height="54" viewBox="0 0 54 54" fill="none" xmlns="http://www.w3.org/2000/svg">
<g clip-path="url(#clip0_12_6)">
<path d="M31.23 22.965L15.69 13.5C15 13.11 14.025 14.055 14.4 14.76L23.625 30.6L39.465 39.825C39.6438 39.8899 39.8376 39.9018 40.023 39.8594C40.2085 39.8171 40.3778 39.7222 40.5107 39.5861C40.6437 39.45 40.7346 39.2785 40.7726 39.0921C40.8106 38.9057 40.794 38.7123 40.725 38.535L31.23 22.965ZM25.23 28.965L29.73 24.465L36.555 35.625L25.23 28.965Z" fill="white" style="fill:white;fill-opacity:1;"/>
<path d="M27 3C22.2533 3 17.6131 4.40758 13.6663 7.04473C9.71953 9.68188 6.64339 13.4302 4.82689 17.8156C3.01039 22.201 2.53511 27.0266 3.46115 31.6822C4.3872 36.3377 6.67298 40.6141 10.0294 43.9706C13.3859 47.327 17.6623 49.6128 22.3178 50.5389C26.9734 51.4649 31.799 50.9896 36.1844 49.1731C40.5698 47.3566 44.3181 44.2805 46.9553 40.3337C49.5924 36.3869 51 31.7468 51 27C51 20.6348 48.4714 14.5303 43.9706 10.0294C39.4697 5.52856 33.3652 3 27 3ZM28.5 47.925V44.295H25.5V47.925C20.469 47.5599 15.7375 45.3961 12.1707 41.8293C8.60387 38.2625 6.44009 33.531 6.075 28.5H9.705V25.5H6.075C6.44009 20.469 8.60387 15.7375 12.1707 12.1707C15.7375 8.60387 20.469 6.44009 25.5 6.075V9.705H28.5V6.075C33.531 6.44009 38.2625 8.60387 41.8293 12.1707C45.3961 15.7375 47.5599 20.469 47.925 25.5H44.295V28.5H47.925C47.5599 33.531 45.3961 38.2625 41.8293 41.8293C38.2625 45.3961 33.531 47.5599 28.5 47.925Z" fill="white" style="fill:white;fill-opacity:1;"/>
</g>
<defs>
<clipPath id="clip0_12_6">
<rect width="54" height="54" fill="white" style="fill:white;fill-opacity:1;"/>
</clipPath>
</defs>
</svg>
