<svg width="35" height="35" viewBox="0 0 35 35" fill="none" xmlns="http://www.w3.org/2000/svg">
<rect width="35" height="35" rx="8" fill="#6D695E" style="fill:#6D695E;fill:color(display-p3 0.4273 0.4124 0.3702);fill-opacity:1;"/>
<path d="M24.2476 7.94075L26.0368 6.15045C26.4098 5.77746 26.9157 5.56792 27.4432 5.56792C27.9707 5.56792 28.4766 5.77746 28.8496 6.15045C29.2226 6.52344 29.4321 7.02933 29.4321 7.55682C29.4321 8.0843 29.2226 8.59019 28.8496 8.96318L17.587 20.2258C17.0263 20.7861 16.3348 21.198 15.575 21.4242L12.7273 22.2727L13.5758 19.425C13.802 18.6652 14.2139 17.9737 14.7743 17.413L24.2476 7.94075ZM24.2476 7.94075L27.0455 10.7386M25.4546 18.0303V23.0682C25.4546 23.7011 25.2031 24.3081 24.7556 24.7556C24.3081 25.2031 23.7011 25.4545 23.0682 25.4545H11.9318C11.2989 25.4545 10.692 25.2031 10.2444 24.7556C9.79689 24.3081 9.54547 23.7011 9.54547 23.0682V11.9318C9.54547 11.2989 9.79689 10.6919 10.2444 10.2444C10.692 9.79687 11.2989 9.54545 11.9318 9.54545H16.9697" stroke="#CECECE" style="stroke:#CECECE;stroke:color(display-p3 0.8095 0.8095 0.8095);stroke-opacity:1;" stroke-width="1.5" stroke-linecap="round" stroke-linejoin="round"/>
</svg>
