<svg width="35" height="35" viewBox="0 0 35 35" fill="none" xmlns="http://www.w3.org/2000/svg">
<rect width="35" height="35" rx="8" fill="#6D695E"/>
<path d="M9.16667 15.4167L8.43021 16.1531L7.69376 15.4167L8.43021 14.6802L9.16667 15.4167ZM26.875 23.75C26.875 24.0263 26.7653 24.2912 26.5699 24.4866C26.3746 24.6819 26.1096 24.7917 25.8333 24.7917C25.5571 24.7917 25.2921 24.6819 25.0968 24.4866C24.9014 24.2912 24.7917 24.0263 24.7917 23.75H26.875ZM13.6385 21.3614L8.43021 16.1531L9.90313 14.6802L15.1115 19.8885L13.6385 21.3614ZM8.43021 14.6802L13.6385 9.47186L15.1115 10.9448L9.90313 16.1531L8.43021 14.6802ZM9.16667 14.375H19.5833V16.4583H9.16667V14.375ZM26.875 21.6667V23.75H24.7917V21.6667H26.875ZM19.5833 14.375C21.5172 14.375 23.3719 15.1432 24.7393 16.5107C26.1068 17.8781 26.875 19.7328 26.875 21.6667H24.7917C24.7917 20.2853 24.2429 18.9606 23.2662 17.9838C22.2894 17.0071 20.9647 16.4583 19.5833 16.4583V14.375Z" fill="#CECECE"/>
</svg>
